<svg xmlns="http://www.w3.org/2000/svg" version="1.1" xmlns:xlink="http://www.w3.org/1999/xlink" xmlns:svgjs="http://svgjs.dev/svgjs" width="1500" height="935" viewBox="0 0 1500 935"><g transform="matrix(1,0,0,1,-0.9090909090909918,145.16404858299597)"><svg viewBox="0 0 396 247" data-background-color="#f9f6ed" preserveAspectRatio="xMidYMid meet" height="935" width="1500" xmlns="http://www.w3.org/2000/svg" xmlns:xlink="http://www.w3.org/1999/xlink"><g id="tight-bounds" transform="matrix(1,0,0,1,0.2400000000000091,-0.09999999999999432)"><svg viewBox="0 0 395.52 247.2" height="247.2" width="395.52"><g><svg></svg></g><g><svg viewBox="0 0 395.52 247.2" height="247.2" width="395.52"><g transform="matrix(1,0,0,1,75.54432000000001,83.61969435336012)"><svg viewBox="0 0 244.43135999999996 79.96061129327975" height="79.96061129327975" width="244.43135999999996"><g><svg viewBox="0 0 244.43135999999996 79.96061129327975" height="79.96061129327975" width="244.43135999999996"><g><svg viewBox="0 0 244.43136 79.96061129327977" height="79.96061129327975" width="244.43135999999996"><g><svg viewBox="0 0 244.43136 79.96061129327977" height="79.96061129327977" width="244.43136"><g id="textblocktransform"><svg viewBox="0 0 244.43136 79.96061129327977" height="79.96061129327977" width="244.43136" id="textblock"><g><svg viewBox="0 0 244.43136 44.42177227397261" height="44.42177227397261" width="244.43136"><g transform="matrix(1,0,0,1,0,0)"><svg width="244.43136" viewBox="1.6 -30.2 218.98000000000002 39.8" height="44.42177227397261" data-palette-color="#21272d"><path d="M8.45 1.35L8.45 1.35Q8.35 1.35 7.88 1.25 7.4 1.15 6.98 1 6.55 0.85 6.5 0.65L6.5 0.65Q6.4-0.3 7-2.05 7.6-3.8 8.63-5.98 9.65-8.15 10.75-10.25L10.75-10.25Q10.55-10.25 10.33-10.28 10.1-10.3 9.85-10.3L9.85-10.3Q9.25-10.4 9.25-10.85L9.25-10.85Q9.25-11.1 9.8-11.1L9.8-11.1Q10.2-11.1 10.5-11.08 10.8-11.05 11.15-11.05L11.15-11.05Q12.15-12.95 13-14.48 13.85-16 14.2-16.8L14.2-16.8Q14.5-17.35 14.6-17.73 14.7-18.1 14.7-18.3L14.7-18.3Q14.7-18.6 14.6-18.8L14.6-18.8Q14.7-19.4 15.33-20.4 15.95-21.4 16.9-22.4 17.85-23.4 18.95-24.08 20.05-24.75 21-24.75L21-24.75Q21.3-24.75 21.93-24.58 22.55-24.4 23.15-24.05 23.75-23.7 23.9-23.05L23.9-23.05Q23.95-22.95 23.95-22.75L23.95-22.75Q23.95-22.6 23.8-22.6L23.8-22.6Q23.7-22.6 23.53-22.68 23.35-22.75 23.25-22.75L23.25-22.75Q22.15-22.75 20.88-21.73 19.6-20.7 18.25-19 16.9-17.3 15.58-15.23 14.25-13.15 13.05-11.05L13.05-11.05Q15.55-11.15 18.35-11.68 21.15-12.2 23.9-13.1 26.65-14 29-15.3 31.35-16.6 32.95-18.25L32.95-18.25Q34.7-20.1 34.7-22.05L34.7-22.05Q34.7-23.5 33.6-24.75 32.5-26 30.15-26.65L30.15-26.65Q28.75-27.05 26.98-27.25 25.2-27.45 23.15-27.45L23.15-27.45Q19.95-27.45 16.57-26.9 13.2-26.35 10.25-25.23 7.3-24.1 5.3-22.4 3.3-20.7 2.9-18.35L2.9-18.35Q2.75-17.15 3.35-16.45 3.95-15.75 4.83-15.38 5.7-15 6.2-14.7L6.2-14.7Q6.55-14.4 6.55-14.2L6.55-14.2Q6.55-13.85 5.9-13.95L5.9-13.95Q5.2-14.1 4.17-14.65 3.15-15.2 2.38-16.18 1.6-17.15 1.6-18.45L1.6-18.45Q1.6-18.65 1.63-18.85 1.65-19.05 1.7-19.25L1.7-19.25Q1.7-19.3 1.68-19.58 1.65-19.85 1.65-20.05L1.65-20.05Q1.95-21.6 3.18-22.98 4.4-24.35 5.98-25.43 7.55-26.5 8.9-27.15L8.9-27.15Q11.25-28.3 14.55-28.98 17.85-29.65 21.45-29.65L21.45-29.65Q23.65-29.65 25.83-29.35 28-29.05 30.05-28.4L30.05-28.4Q32.9-27.45 34.48-25.48 36.05-23.5 35.9-21.35L35.9-21.35Q35.75-19.3 34.48-17.65 33.2-16 31.23-14.78 29.25-13.55 26.88-12.68 24.5-11.8 22.1-11.25L22.1-11.25Q19.8-10.75 17.23-10.5 14.65-10.25 12.6-10.2L12.6-10.2Q11.4-8.05 10.48-6.15 9.55-4.25 9.1-3.1L9.1-3.1Q8.7-2 8.7-1.55L8.7-1.55Q8.7-0.85 9.25-0.85L9.25-0.85Q9.95-0.85 10.75-1.8L10.75-1.8Q11.3-2.45 11.78-3.03 12.25-3.6 12.6-3.5L12.6-3.5Q12.65-3.45 12.65-3.35L12.65-3.35Q12.65-3.1 12.3-2.68 11.95-2.25 11.9-2.2L11.9-2.2Q11.55-1.7 10.98-0.85 10.4 0 9.78 0.68 9.15 1.35 8.45 1.35ZM33.45 0.75L33.45 0.75Q31.2 0.75 29.55-0.3 27.9-1.35 27.9-3.5L27.9-3.5Q27.9-4.65 28.6-6.3L28.6-6.3Q29.1-7.45 30.45-8.95 31.8-10.45 33.6-11.88 35.4-13.3 37.25-14.23 39.1-15.15 40.6-15.15L40.6-15.15Q41.15-15.15 41.6-15L41.6-15Q42.45-14.7 42.77-14.05 43.1-13.4 43.1-12.7L43.1-12.7Q43.1-12.05 42.9-11.45 42.7-10.85 42.4-10.4L42.4-10.4Q41.5-9.05 39.82-8 38.15-6.95 36.42-6.35 34.7-5.75 33.6-5.65L33.6-5.65 33.5-5.65Q32.85-5.65 32.85-6.05L32.85-6.05Q32.85-6.3 33.25-6.3L33.25-6.3Q34.45-6.4 36.27-7.43 38.1-8.45 39.5-9.55L39.5-9.55Q40.1-10.05 40.92-10.95 41.75-11.85 41.75-12.7L41.75-12.7Q41.75-13.6 40.9-13.6L40.9-13.6Q40.45-13.6 39.97-13.4 39.5-13.2 39.2-13.1L39.2-13.1Q37.75-12.4 36-10.93 34.25-9.45 32.82-7.63 31.4-5.8 30.85-3.95L30.85-3.95Q30.7-3.55 30.65-3.18 30.6-2.8 30.6-2.45L30.6-2.45Q30.6-1.25 31.37-0.75 32.15-0.25 33.25-0.25L33.25-0.25Q34.9-0.25 36.65-0.98 38.4-1.7 40.05-2.85 41.7-4 43.07-5.33 44.45-6.65 45.4-7.9L45.4-7.9Q45.55-8.1 45.75-8.13 45.95-8.15 46-8.05L46-8.05Q46.2-8 46.2-7.78 46.2-7.55 46.1-7.35L46.1-7.35Q44.7-5.4 42.72-3.55 40.75-1.7 38.37-0.48 36 0.75 33.45 0.75ZM42.75 0.65L42.75 0.65Q42.4 0.65 42.55 0.3L42.55 0.3Q42.7 0 43.1-1.07 43.5-2.15 44.02-3.65 44.55-5.15 45.1-6.75 45.65-8.35 46.12-9.75 46.6-11.15 46.9-11.95L46.9-11.95Q47-12.25 47.1-12.83 47.2-13.4 47.52-13.88 47.85-14.35 48.65-14.35L48.65-14.35Q50.15-14.35 50.15-13.65L50.15-13.65Q50.15-13.4 49.9-12.8L49.9-12.8Q49.3-11.45 48.6-9.7 47.9-7.95 47.35-6.4 46.8-4.85 46.5-4L46.5-4Q47-4.7 48.12-6 49.25-7.3 50.65-8.8 52.05-10.3 53.57-11.7 55.1-13.1 56.42-13.98 57.75-14.85 58.7-14.85L58.7-14.85Q59.9-14.85 59.9-13.55L59.9-13.55Q59.9-13.1 59.65-12.2L59.65-12.2Q59.2-10.95 58.5-9.78 57.8-8.6 57.25-7.3L57.25-7.3Q56.3-4.95 56.15-3.5L56.15-3.5Q56.1-3.3 56.1-3.13 56.1-2.95 56.1-2.75L56.1-2.75Q56.1-0.75 57.45-0.75L57.45-0.75Q58.2-0.75 59.45-1.65 60.7-2.55 62.02-3.8 63.35-5.05 64.4-6.23 65.45-7.4 65.84-8L65.84-8Q66-8.15 66.15-8.15L66.15-8.15Q66.34-8.15 66.47-8 66.59-7.85 66.5-7.6L66.5-7.6Q66.05-6.75 64.97-5.48 63.9-4.2 62.6-2.93 61.3-1.65 60.05-0.75L60.05-0.75Q59.3-0.25 58.2 0.15 57.1 0.55 56 0.5L56 0.5Q54.6 0.35 54-0.48 53.4-1.3 53.4-2.45L53.4-2.45Q53.4-3.8 53.92-5.33 54.45-6.85 55.1-8.2 55.75-9.55 56.15-10.25L56.15-10.25Q56.55-11.05 56.55-11.5L56.55-11.5Q56.55-11.9 56.2-11.9L56.2-11.9Q55.85-11.9 55.15-11.45 54.45-11 53.25-9.9L53.25-9.9Q52.15-8.95 50.9-7.43 49.65-5.9 48.47-4.3 47.3-2.7 46.42-1.55 45.55-0.4 45.2-0.2L45.2-0.2Q44.95-0.05 44.07 0.3 43.2 0.65 42.75 0.65ZM78.99 0.5L78.99 0.5Q78.14 0.5 77.42 0.1 76.69-0.3 76.34-1.4L76.34-1.4Q76.19-1.85 76.19-2.65L76.19-2.65Q76.19-3.75 76.49-5.1 76.79-6.45 77.14-7.4L77.14-7.4Q76.89-7.3 76.22-6.53 75.54-5.75 74.57-4.67 73.59-3.6 72.42-2.53 71.24-1.45 69.99-0.75 68.74-0.05 67.54-0.05L67.54-0.05Q66.74-0.05 65.84-0.53 64.94-1 64.39-1.75L64.39-1.75Q63.64-2.75 63.64-3.8L63.64-3.8Q63.64-5.15 64.57-6.6 65.49-8.05 66.97-9.43 68.44-10.8 70.12-11.93 71.79-13.05 73.32-13.83 74.84-14.6 75.79-14.85L75.79-14.85Q76.79-15.15 78.04-15.15L78.04-15.15Q78.74-15.15 79.49-14.98 80.24-14.8 80.74-14.4L80.74-14.4Q81.14-14.2 81.39-13.85 81.64-13.5 81.64-13.1L81.64-13.1Q81.64-12.7 81.29-12.85L81.29-12.85Q80.89-13.45 80.22-13.63 79.54-13.8 78.84-13.8L78.84-13.8Q76.84-13.8 74.44-12.5 72.04-11.2 70.14-9.45L70.14-9.45Q69.54-8.95 68.52-7.73 67.49-6.5 66.64-5.05 65.79-3.6 65.79-2.4L65.79-2.4Q65.79-1.75 66.14-1.25L66.14-1.25Q66.34-0.9 66.79-0.9L66.79-0.9Q67.49-0.9 68.67-1.65 69.84-2.4 71.09-3.48 72.34-4.55 73.37-5.55 74.39-6.55 74.84-7L74.84-7Q75.09-7.25 75.82-8.03 76.54-8.8 77.39-9.7 78.24-10.6 78.92-11.25 79.59-11.9 79.79-11.9L79.79-11.9Q80.04-11.9 80.62-11.78 81.19-11.65 81.59-11.4 81.99-11.15 81.74-10.75L81.74-10.75Q80.44-8.85 79.67-6.78 78.89-4.7 78.74-3.5L78.74-3.5Q78.69-3.3 78.69-3.13 78.69-2.95 78.69-2.75L78.69-2.75Q78.69-0.75 80.09-0.75L80.09-0.75Q80.84-0.75 82.09-1.65 83.34-2.55 84.64-3.8 85.94-5.05 87.02-6.23 88.09-7.4 88.49-8L88.49-8Q88.64-8.15 88.79-8.15L88.79-8.15Q88.99-8.15 89.14-7.98 89.29-7.8 89.14-7.55L89.14-7.55Q88.59-6.65 87.54-5.4 86.49-4.15 85.19-2.9 83.89-1.65 82.64-0.75L82.64-0.75Q81.99-0.25 80.99 0.13 79.99 0.5 78.99 0.5ZM85.59 0.65L85.59 0.65Q85.24 0.65 85.39 0.3L85.39 0.3Q85.54 0 85.94-1.07 86.34-2.15 86.87-3.65 87.39-5.15 87.94-6.75 88.49-8.35 88.97-9.75 89.44-11.15 89.74-11.95L89.74-11.95Q89.84-12.25 89.94-12.83 90.04-13.4 90.37-13.88 90.69-14.35 91.49-14.35L91.49-14.35Q92.99-14.35 92.99-13.65L92.99-13.65Q92.99-13.4 92.74-12.8L92.74-12.8Q92.14-11.45 91.44-9.7 90.74-7.95 90.19-6.4 89.64-4.85 89.34-4L89.34-4Q89.84-4.7 90.97-6 92.09-7.3 93.49-8.8 94.89-10.3 96.42-11.7 97.94-13.1 99.27-13.98 100.59-14.85 101.54-14.85L101.54-14.85Q102.74-14.85 102.74-13.55L102.74-13.55Q102.74-13.1 102.49-12.2L102.49-12.2Q102.04-10.95 101.34-9.78 100.64-8.6 100.09-7.3L100.09-7.3Q99.14-4.95 98.99-3.5L98.99-3.5Q98.94-3.3 98.94-3.13 98.94-2.95 98.94-2.75L98.94-2.75Q98.94-0.75 100.29-0.75L100.29-0.75Q101.04-0.75 102.29-1.65 103.54-2.55 104.87-3.8 106.19-5.05 107.24-6.23 108.29-7.4 108.69-8L108.69-8Q108.84-8.15 108.99-8.15L108.99-8.15Q109.19-8.15 109.32-8 109.44-7.85 109.34-7.6L109.34-7.6Q108.89-6.75 107.82-5.48 106.74-4.2 105.44-2.93 104.14-1.65 102.89-0.75L102.89-0.75Q102.14-0.25 101.04 0.15 99.94 0.55 98.84 0.5L98.84 0.5Q97.44 0.35 96.84-0.48 96.24-1.3 96.24-2.45L96.24-2.45Q96.24-3.8 96.77-5.33 97.29-6.85 97.94-8.2 98.59-9.55 98.99-10.25L98.99-10.25Q99.39-11.05 99.39-11.5L99.39-11.5Q99.39-11.9 99.04-11.9L99.04-11.9Q98.69-11.9 97.99-11.45 97.29-11 96.09-9.9L96.09-9.9Q94.99-8.95 93.74-7.43 92.49-5.9 91.32-4.3 90.14-2.7 89.27-1.55 88.39-0.4 88.04-0.2L88.04-0.2Q87.79-0.05 86.92 0.3 86.04 0.65 85.59 0.65ZM121.29 5.45L121.29 5.45Q119.99 5.25 119.44 4.2 118.89 3.15 118.89 1.6L118.89 1.6Q118.89-0.25 119.41-2.4 119.94-4.55 120.64-6.45 121.34-8.35 121.74-9.35L121.74-9.35Q120.59-8 119.11-6.4 117.64-4.8 116.04-3.35 114.44-1.9 112.96-0.98 111.49-0.05 110.39-0.05L110.39-0.05Q109.59-0.05 108.69-0.53 107.79-1 107.24-1.75L107.24-1.75Q106.49-2.75 106.49-3.8L106.49-3.8Q106.49-5.15 107.41-6.6 108.34-8.05 109.81-9.43 111.29-10.8 112.96-11.93 114.64-13.05 116.16-13.83 117.69-14.6 118.64-14.85L118.64-14.85Q119.14-14.95 119.69-15.05 120.24-15.15 120.84-15.15L120.84-15.15Q121.59-15.15 122.34-14.98 123.09-14.8 123.59-14.4L123.59-14.4 123.79-14.25Q124.99-17 126.44-19.83 127.89-22.65 129.54-25 131.19-27.35 133.04-28.78 134.89-30.2 136.89-30.2L136.89-30.2Q137.14-30.2 137.39-30.18 137.64-30.15 137.84-30.1L137.84-30.1Q139.09-29.85 139.61-29.23 140.14-28.6 140.14-27.75L140.14-27.75Q140.14-27.15 139.91-26.48 139.69-25.8 139.29-25.15L139.29-25.15Q138.19-23.2 136.41-21.3 134.64-19.4 132.54-17.63 130.44-15.85 128.36-14.2 126.29-12.55 124.59-11.1L124.59-11.1Q123.84-9.35 123.09-7 122.34-4.65 121.84-3L121.84-3Q121.54-1.8 121.36-0.75 121.19 0.3 121.19 1.2L121.19 1.2Q121.19 2.85 121.79 3.9L121.79 3.9Q122.29 4.7 123.04 4.7L123.04 4.7Q123.59 4.7 124.04 4.3L124.04 4.3Q124.24 4.2 124.41 4.05 124.59 3.9 124.84 3.75L124.84 3.75Q125.14 3.6 125.34 3.6L125.34 3.6Q125.69 3.6 125.39 4.15L125.39 4.15Q125.24 4.3 125.04 4.53 124.84 4.75 124.59 5L124.59 5Q124.24 5.25 123.54 5.4 122.84 5.55 122.14 5.55L122.14 5.55Q121.94 5.55 121.71 5.53 121.49 5.5 121.29 5.45ZM126.09-13.95L126.09-13.95Q128.09-15.3 130.44-17.32 132.79-19.35 134.84-21.68 136.89-24 137.99-26.1L137.99-26.1Q138.64-27.3 138.64-28L138.64-28Q138.64-28.85 137.89-28.85L137.89-28.85Q137.19-28.85 136.04-28.05L136.04-28.05Q132.69-25.45 130.39-21.88 128.09-18.3 126.09-13.95ZM108.99-1.25L108.99-1.25Q109.24-0.95 109.64-0.95L109.64-0.95Q110.39-0.95 111.41-1.6 112.44-2.25 112.79-2.6L112.79-2.6Q115.34-4.65 117.91-7.03 120.49-9.4 122.74-11.8L122.74-11.8Q122.94-12.25 123.09-12.68 123.24-13.1 123.44-13.5L123.44-13.5Q122.69-13.8 121.69-13.8L121.69-13.8Q119.69-13.8 117.29-12.5 114.89-11.2 112.99-9.45L112.99-9.45Q112.39-8.95 111.36-7.73 110.34-6.5 109.49-5.05 108.64-3.6 108.64-2.4L108.64-2.4Q108.64-1.75 108.99-1.25ZM133.04 1.35L133.04 1.35Q132.94 1.35 132.46 1.25 131.99 1.15 131.56 1 131.14 0.85 131.09 0.65L131.09 0.65Q130.99-0.3 131.59-2.05 132.19-3.8 133.21-5.98 134.24-8.15 135.34-10.25L135.34-10.25Q135.14-10.25 134.91-10.28 134.69-10.3 134.44-10.3L134.44-10.3Q133.84-10.4 133.84-10.85L133.84-10.85Q133.84-11.1 134.39-11.1L134.39-11.1Q134.79-11.1 135.09-11.08 135.39-11.05 135.74-11.05L135.74-11.05Q136.74-12.95 137.59-14.48 138.44-16 138.79-16.8L138.79-16.8Q139.09-17.35 139.19-17.73 139.29-18.1 139.29-18.3L139.29-18.3Q139.29-18.6 139.19-18.8L139.19-18.8Q139.29-19.4 139.91-20.4 140.54-21.4 141.49-22.4 142.44-23.4 143.54-24.08 144.64-24.75 145.59-24.75L145.59-24.75Q145.89-24.75 146.51-24.58 147.14-24.4 147.74-24.05 148.34-23.7 148.49-23.05L148.49-23.05Q148.54-22.95 148.54-22.75L148.54-22.75Q148.54-22.6 148.39-22.6L148.39-22.6Q148.29-22.6 148.11-22.68 147.94-22.75 147.84-22.75L147.84-22.75Q146.74-22.75 145.46-21.73 144.19-20.7 142.84-19 141.49-17.3 140.16-15.23 138.84-13.15 137.64-11.05L137.64-11.05Q140.14-11.15 142.94-11.68 145.74-12.2 148.49-13.1 151.24-14 153.59-15.3 155.94-16.6 157.54-18.25L157.54-18.25Q159.29-20.1 159.29-22.05L159.29-22.05Q159.29-23.5 158.19-24.75 157.09-26 154.74-26.65L154.74-26.65Q153.34-27.05 151.56-27.25 149.79-27.45 147.74-27.45L147.74-27.45Q144.54-27.45 141.16-26.9 137.79-26.35 134.84-25.23 131.89-24.1 129.89-22.4 127.89-20.7 127.49-18.35L127.49-18.35Q127.34-17.15 127.94-16.45 128.54-15.75 129.41-15.38 130.29-15 130.79-14.7L130.79-14.7Q131.14-14.4 131.14-14.2L131.14-14.2Q131.14-13.85 130.49-13.95L130.49-13.95Q129.79-14.1 128.76-14.65 127.74-15.2 126.96-16.18 126.19-17.15 126.19-18.45L126.19-18.45Q126.19-18.65 126.21-18.85 126.24-19.05 126.29-19.25L126.29-19.25Q126.29-19.3 126.26-19.58 126.24-19.85 126.24-20.05L126.24-20.05Q126.54-21.6 127.76-22.98 128.99-24.35 130.56-25.43 132.14-26.5 133.49-27.15L133.49-27.15Q135.84-28.3 139.14-28.98 142.44-29.65 146.04-29.65L146.04-29.65Q148.24-29.65 150.41-29.35 152.59-29.05 154.64-28.4L154.64-28.4Q157.49-27.45 159.06-25.48 160.64-23.5 160.49-21.35L160.49-21.35Q160.34-19.3 159.06-17.65 157.79-16 155.81-14.78 153.84-13.55 151.46-12.68 149.09-11.8 146.69-11.25L146.69-11.25Q144.39-10.75 141.81-10.5 139.24-10.25 137.19-10.2L137.19-10.2Q135.99-8.05 135.06-6.15 134.14-4.25 133.69-3.1L133.69-3.1Q133.29-2 133.29-1.55L133.29-1.55Q133.29-0.85 133.84-0.85L133.84-0.85Q134.54-0.85 135.34-1.8L135.34-1.8Q135.89-2.45 136.36-3.03 136.84-3.6 137.19-3.5L137.19-3.5Q137.24-3.45 137.24-3.35L137.24-3.35Q137.24-3.1 136.89-2.68 136.54-2.25 136.49-2.2L136.49-2.2Q136.14-1.7 135.56-0.85 134.99 0 134.36 0.68 133.74 1.35 133.04 1.35ZM161.38-17.4L161.38-17.4Q160.73-17.4 160.03-17.53 159.33-17.65 159.33-18.45L159.33-18.45Q159.33-18.6 160.01-19.15 160.68-19.7 161.41-20.28 162.13-20.85 162.28-20.95L162.28-20.95Q163.13-21.65 163.33-21.65L163.33-21.65Q163.58-21.65 163.33-21 163.08-20.35 163.08-19.85L163.08-19.85Q163.08-19.6 162.78-19 162.48-18.4 162.08-17.9 161.68-17.4 161.38-17.4ZM155.93 0.5L155.93 0.5Q155.03 0.5 154.31 0.1 153.58-0.3 153.23-1.4L153.23-1.4Q153.18-1.55 153.16-1.7 153.13-1.85 153.13-2.05L153.13-2.05Q153.13-3.05 153.58-4.55 154.03-6.05 154.68-7.45L154.68-7.45Q154.38-7.05 153.98-6.48 153.58-5.9 152.83-5L152.83-5Q152.63-4.8 152.38-4.8L152.38-4.8Q152.03-4.8 152.03-5.2L152.03-5.2Q152.03-5.5 152.23-5.7L152.23-5.7Q153.53-7.35 154.56-8.65 155.58-9.95 156.08-10.85L156.08-10.85Q156.08-10.9 156.06-10.93 156.03-10.95 156.03-11L156.03-11Q156.03-11.15 156.18-11.45L156.18-11.45Q156.58-12.65 157.01-13.48 157.43-14.3 157.93-14.4L157.93-14.4Q158.03-14.4 158.13-14.43 158.23-14.45 158.33-14.45L158.33-14.45Q158.88-14.45 159.33-14.2 159.78-13.95 159.78-13.45L159.78-13.45Q159.78-13 159.46-12.35 159.13-11.7 158.63-10.75L158.63-10.75Q157.53-8.45 156.66-6.58 155.78-4.7 155.68-3.5L155.68-3.5Q155.63-3.3 155.63-3.13 155.63-2.95 155.63-2.75L155.63-2.75Q155.63-0.75 156.93-0.75L156.93-0.75Q157.73-0.75 158.98-1.63 160.23-2.5 161.53-3.78 162.83-5.05 163.91-6.23 164.98-7.4 165.38-8L165.38-8Q165.53-8.15 165.68-8.15L165.68-8.15Q165.88-8.15 166.01-8 166.13-7.85 166.03-7.6L166.03-7.6Q165.58-6.75 164.51-5.48 163.43-4.2 162.11-2.93 160.78-1.65 159.53-0.75L159.53-0.75Q158.88-0.25 157.91 0.13 156.93 0.5 155.93 0.5ZM161.73 9.6L161.73 9.6Q161.28 9.6 161.28 9.05L161.28 9.05Q161.28 7.2 162.36 5.1 163.43 3 165.01 0.93 166.58-1.15 168.16-2.88 169.73-4.6 170.81-5.73 171.88-6.85 171.88-7.05L171.88-7.05Q171.88-7.55 171.58-8.47 171.28-9.4 170.78-10.18 170.28-10.95 169.68-10.95L169.68-10.95Q168.93-10.95 168.01-9.78 167.08-8.6 165.78-7.1L165.78-7.1Q165.48-6.75 165.23-6.75L165.23-6.75Q164.93-6.75 164.93-7.1L164.93-7.1Q164.93-7.4 165.13-7.6L165.13-7.6Q165.58-8.15 166.33-9.18 167.08-10.2 167.93-11.28 168.78-12.35 169.61-13.08 170.43-13.8 171.03-13.8L171.03-13.8Q172.28-13.8 172.83-13.05 173.38-12.3 173.68-11.18 173.98-10.05 174.38-8.8L174.38-8.8Q176.23-10.55 177.98-12.03 179.73-13.5 181.88-14.85L181.88-14.85Q182.23-15.05 182.63-15.05L182.63-15.05Q183.23-15.05 183.68-14.7 184.13-14.35 184.13-13.8L184.13-13.8Q184.13-13.3 183.66-13.28 183.18-13.25 182.93-13.15L182.93-13.15Q181.08-12.45 180.03-11.75 178.98-11.05 178.18-10.4L178.18-10.4 174.63-7.55Q174.63-7 175.18-5.55 175.73-4.1 176.43-2.75L176.43-2.75Q177.38-1 178.58-1L178.58-1Q179.38-1 180.18-1.55 180.98-2.1 181.78-2.9L181.78-2.9Q182.98-4.25 184.16-5.78 185.33-7.3 185.83-8L185.83-8Q185.98-8.15 186.18-8.15L186.18-8.15Q186.43-8.15 186.56-7.95 186.68-7.75 186.43-7.45L186.43-7.45Q186.13-7.05 185.41-6.05 184.68-5.05 183.76-3.9 182.83-2.75 181.88-1.8L181.88-1.8Q180.53-0.55 179.51-0.1 178.48 0.35 177.63 0.35L177.63 0.35Q177.43 0.35 177.18 0.33 176.93 0.3 176.68 0.25L176.68 0.25Q175.58 0 174.76-1.05 173.93-2.1 173.36-3.4 172.78-4.7 172.43-5.6L172.43-5.6Q171.53-4.65 170.26-3.28 168.98-1.9 167.58-0.28 166.18 1.35 164.96 3.05 163.73 4.75 162.96 6.3 162.18 7.85 162.13 9.05L162.13 9.05Q162.08 9.6 161.73 9.6ZM189.78 0.75L189.78 0.75Q187.53 0.75 185.88-0.3 184.23-1.35 184.23-3.5L184.23-3.5Q184.23-4.65 184.93-6.3L184.93-6.3Q185.43-7.45 186.78-8.95 188.13-10.45 189.93-11.88 191.73-13.3 193.58-14.23 195.43-15.15 196.93-15.15L196.93-15.15Q197.48-15.15 197.93-15L197.93-15Q198.78-14.7 199.1-14.05 199.43-13.4 199.43-12.7L199.43-12.7Q199.43-12.05 199.23-11.45 199.03-10.85 198.73-10.4L198.73-10.4Q197.83-9.05 196.15-8 194.48-6.95 192.75-6.35 191.03-5.75 189.93-5.65L189.93-5.65 189.83-5.65Q189.18-5.65 189.18-6.05L189.18-6.05Q189.18-6.3 189.58-6.3L189.58-6.3Q190.78-6.4 192.6-7.43 194.43-8.45 195.83-9.55L195.83-9.55Q196.43-10.05 197.25-10.95 198.08-11.85 198.08-12.7L198.08-12.7Q198.08-13.6 197.23-13.6L197.23-13.6Q196.78-13.6 196.3-13.4 195.83-13.2 195.53-13.1L195.53-13.1Q194.08-12.4 192.33-10.93 190.58-9.45 189.15-7.63 187.73-5.8 187.18-3.95L187.18-3.95Q187.03-3.55 186.98-3.18 186.93-2.8 186.93-2.45L186.93-2.45Q186.93-1.25 187.7-0.75 188.48-0.25 189.58-0.25L189.58-0.25Q191.23-0.25 192.98-0.98 194.73-1.7 196.38-2.85 198.03-4 199.4-5.33 200.78-6.65 201.73-7.9L201.73-7.9Q201.88-8.1 202.08-8.13 202.28-8.15 202.33-8.05L202.33-8.05Q202.53-8 202.53-7.78 202.53-7.55 202.43-7.35L202.43-7.35Q201.03-5.4 199.05-3.55 197.08-1.7 194.7-0.48 192.33 0.75 189.78 0.75ZM204.38 0.5L204.38 0.5Q202.28 0.5 201.45-0.55 200.63-1.6 200.63-3.15L200.63-3.15Q200.63-4.6 201.3-6.8 201.98-9 203.08-11.55 204.18-14.1 205.45-16.63 206.73-19.15 208-21.28 209.28-23.4 210.23-24.7L210.23-24.7Q211.18-25.95 212.28-27.2 213.38-28.45 214.73-29.3 216.08-30.15 217.78-30.15L217.78-30.15Q218.93-30.15 219.75-29.53 220.58-28.9 220.58-27.65L220.58-27.65Q220.58-27.15 220.4-26.5 220.23-25.85 219.83-25.15L219.83-25.15Q216.78-19.85 212.55-15.35 208.33-10.85 203.63-7L203.63-7Q203.43-6.25 203.25-5.65 203.08-5.05 202.98-4.7L202.98-4.7Q202.93-4.45 202.93-4.17 202.93-3.9 202.93-3.65L202.93-3.65Q202.93-2.45 203.33-1.55 203.73-0.65 204.68-0.65L204.68-0.65Q205.58-0.65 206.9-1.53 208.23-2.4 209.58-3.68 210.93-4.95 212.03-6.15 213.13-7.35 213.58-8L213.58-8Q213.73-8.15 213.88-8.15L213.88-8.15Q214.08-8.15 214.2-7.95 214.33-7.75 214.18-7.45L214.18-7.45Q213.68-6.6 212.58-5.35 211.48-4.1 210.13-2.83 208.78-1.55 207.53-0.6L207.53-0.6Q205.98 0.5 204.38 0.5ZM204.33-9L204.33-9Q206.23-10.3 208.28-12.38 210.33-14.45 212.3-16.9 214.28-19.35 215.9-21.75 217.53-24.15 218.53-26.1L218.53-26.1Q218.83-26.65 218.95-27.08 219.08-27.5 219.08-27.85L219.08-27.85Q219.08-28.8 218.28-28.8L218.28-28.8Q217.58-28.8 216.53-28.05L216.53-28.05Q213.83-25.95 211.53-22.68 209.23-19.4 207.43-15.8 205.63-12.2 204.33-9Z" opacity="1" transform="matrix(1,0,0,1,0,0)" fill="#21272d" class="wordmark-text-0" data-fill-palette-color="primary" id="text-0"></path></svg></g></svg></g><g transform="matrix(1,0,0,1,0,54.90868658532297)"><svg viewBox="0 0 244.43136 25.051924707956804" height="25.051924707956804" width="244.43136"><g transform="matrix(1,0,0,1,0,0)"><svg width="244.43136" viewBox="4.35 -35.8 453.65 46.5" height="25.051924707956804" data-palette-color="#21272d"><path d="M18.15 0L4.35 0 4.35-35.8 18.15-35.8Q25.4-35.8 29.3-30.4L29.3-30.4Q32.7-25.65 32.7-17.9L32.7-17.9Q32.7-9 28.3-4.2L28.3-4.2Q24.45 0 18.15 0L18.15 0ZM8.9-31.75L8.9-4.05 17.35-4.05Q28.15-4.05 28.15-17.9L28.15-17.9Q28.15-31.75 17.35-31.75L17.35-31.75 8.9-31.75ZM60.6-11.8L60.6-11.65 41.65-11.65Q41.7-8.35 43.05-6.4L43.05-6.4Q45.2-3.25 49.25-3.25L49.25-3.25Q54.25-3.25 56-8L56-8 60.1-8Q59.3-3.95 56.4-1.7 53.5 0.55 49.1 0.55L49.1 0.55Q43.25 0.55 40.15-3.45L40.15-3.45Q37.4-6.95 37.4-12.7L37.4-12.7Q37.4-19.35 41-23.05L41-23.05Q44.15-26.25 49.15-26.25L49.15-26.25Q52.8-26.25 55.57-24.5 58.35-22.75 59.55-19.7L59.55-19.7Q60.6-17.1 60.6-11.8L60.6-11.8ZM41.8-15L56.2-15Q56.2-18.35 54.22-20.43 52.25-22.5 49.15-22.5L49.15-22.5Q46-22.5 44.02-20.48 42.05-18.45 41.8-15L41.8-15ZM84.45-18.65L84.45-18.65 79.95-18.65Q79.75-22.5 74.8-22.5L74.8-22.5Q72.25-22.5 70.77-21.53 69.3-20.55 69.3-18.9L69.3-18.9Q69.3-16.4 74.05-15.3L74.05-15.3 78-14.4Q81.84-13.5 83.55-11.85 85.25-10.2 85.25-7.35L85.25-7.35Q85.25-3.7 82.4-1.58 79.55 0.55 74.7 0.55L74.7 0.55Q69.4 0.55 66.65-1.95L66.65-1.95Q64.34-4 64.2-7.4L64.2-7.4 68.84-7.4Q69.25-5.65 69.95-4.85L69.95-4.85Q71.3-3.25 75-3.25L75-3.25Q77.75-3.25 79.37-4.28 81-5.3 81-7L81-7Q81-9.55 77.05-10.5L77.05-10.5 73.2-11.4Q68.8-12.45 67.05-13.9L67.05-13.9Q65.05-15.55 65.05-18.65L65.05-18.65Q65.05-22.15 67.72-24.2 70.4-26.25 74.9-26.25L74.9-26.25Q79.59-26.25 82.2-23.9L82.2-23.9Q84.45-21.85 84.45-18.65ZM90.54-25.7L94.59-25.7 94.59 0 90.54 0 90.54-25.7ZM92.64-35.75L92.64-35.75Q93.69-35.75 94.42-35.02 95.14-34.3 95.14-33.3L95.14-33.3Q95.14-32.25 94.42-31.53 93.69-30.8 92.64-30.8L92.64-30.8Q91.64-30.8 90.92-31.53 90.19-32.25 90.19-33.3L90.19-33.3Q90.19-34.3 90.92-35.02 91.64-35.75 92.64-35.75ZM118.39-21.85L118.39-25.7 122.19-25.7 122.19-4.2Q122.19 4.15 119.49 7.4L119.49 7.4Q116.79 10.7 110.64 10.7L110.64 10.7Q105.84 10.7 103.14 8.4L103.14 8.4Q100.74 6.35 100.44 2.95L100.44 2.95 104.64 2.95Q104.94 4.95 106.14 5.9L106.14 5.9Q107.89 7.25 110.84 7.25L110.84 7.25Q114.84 7.25 116.54 4.85L116.54 4.85Q117.99 2.8 117.99-2.15L117.99-2.15 117.99-3.8Q114.79 0.55 110.29 0.55L110.29 0.55Q105.89 0.55 102.84-2.75L102.84-2.75Q99.59-6.3 99.59-12.45L99.59-12.45Q99.59-19.05 102.99-22.95L102.99-22.95Q105.99-26.25 110.54-26.25L110.54-26.25Q115.44-26.25 118.39-21.85L118.39-21.85ZM110.99-22.5L110.99-22.5Q107.69-22.5 105.77-19.88 103.84-17.25 103.84-12.7L103.84-12.7Q103.84-7.95 106.04-5.45L106.04-5.45Q107.89-3.25 111.04-3.25L111.04-3.25Q114.34-3.25 116.17-5.75 117.99-8.25 117.99-12.7L117.99-12.7Q117.99-17.6 115.89-20.2L115.89-20.2Q114.04-22.5 110.99-22.5ZM128.94 0L128.94-25.7 132.74-25.7 132.74-21.35Q135.84-26.25 141.24-26.25L141.24-26.25Q144.99-26.25 147.19-24.38 149.39-22.5 149.39-19.35L149.39-19.35 149.39 0 145.34 0 145.34-17.7Q145.34-20 143.91-21.35 142.49-22.7 140.04-22.7L140.04-22.7Q136.84-22.7 134.94-20.35 133.04-18 133.04-14.1L133.04-14.1 133.04 0 128.94 0ZM173.93-5.7L181.08-25.7 185.48-25.7 174.03 5.4Q172.03 10.7 167.38 10.7L167.38 10.7Q165.18 10.7 163.53 9.7L163.53 9.7 164.33 6.15Q165.58 6.65 166.78 6.65L166.78 6.65Q169.18 6.65 170.13 4.15L170.13 4.15 171.68 0.05 162.98-25.7 167.38-25.7 173.93-5.7ZM200.03-26.25L200.03-26.25Q205.83-26.25 208.88-22.2L208.88-22.2Q211.58-18.7 211.58-12.7L211.58-12.7Q211.58-6 208.08-2.5L208.08-2.5Q205.08 0.55 199.98 0.55L199.98 0.55Q194.08 0.55 190.98-3.4L190.98-3.4Q188.28-6.85 188.28-12.7L188.28-12.7Q188.28-19.5 191.83-23.15L191.83-23.15Q194.88-26.25 200.03-26.25ZM200.03-22.5L200.03-22.5Q196.53-22.5 194.53-19.88 192.53-17.25 192.53-12.7L192.53-12.7Q192.53-7.95 194.78-5.45L194.78-5.45Q196.73-3.25 199.98-3.25L199.98-3.25Q203.43-3.25 205.36-5.75 207.28-8.25 207.28-12.7L207.28-12.7Q207.28-17.6 205.08-20.2L205.08-20.2Q203.18-22.5 200.03-22.5ZM237.48-25.7L237.48 0 233.43 0 233.43-4.05Q230.68 0.55 225.23 0.55L225.23 0.55Q221.48 0.55 219.25-1.33 217.03-3.2 217.03-6.35L217.03-6.35 217.03-25.7 221.08-25.7 221.08-8Q221.08-5.75 222.53-4.4 223.98-3.05 226.43-3.05L226.43-3.05Q229.63-3.05 231.53-5.38 233.43-7.7 233.43-11.65L233.43-11.65 233.43-25.7 237.48-25.7ZM244.53 0L244.53-25.7 248.33-25.7 248.33-21Q250.58-26.3 255.43-26.3L255.43-26.3Q256.03-26.3 256.88-26.15L256.88-26.15 256.88-21.95Q252.88-21.9 251.38-20.8L251.38-20.8Q248.63-18.8 248.63-13.35L248.63-13.35 248.63 0 244.53 0ZM269.32 0L269.32-35.8 273.37-35.8 273.37-22.25Q276.22-26.25 281.37-26.25L281.37-26.25Q286.82-26.25 289.77-22.25L289.77-22.25Q292.37-18.75 292.37-13L292.37-13Q292.37-6.35 288.92-2.65L288.92-2.65Q285.92 0.55 281.17 0.55L281.17 0.55Q275.82 0.55 273.02-3.5L273.02-3.5 273.02 0 269.32 0ZM280.62-22.45L280.62-22.45Q277.32-22.45 275.35-19.78 273.37-17.1 273.37-12.7L273.37-12.7Q273.37-8.1 275.62-5.5L275.62-5.5Q277.57-3.3 280.62-3.3L280.62-3.3Q284.02-3.3 286.05-5.85 288.07-8.4 288.07-12.7L288.07-12.7Q288.07-17.4 285.77-20.1L285.77-20.1Q283.77-22.45 280.62-22.45ZM297.32-35.8L301.42-35.8 301.42 0 297.32 0 297.32-35.8ZM318.37-26.25L318.37-26.25Q324.17-26.25 327.22-22.2L327.22-22.2Q329.92-18.7 329.92-12.7L329.92-12.7Q329.92-6 326.42-2.5L326.42-2.5Q323.42 0.55 318.32 0.55L318.32 0.55Q312.42 0.55 309.32-3.4L309.32-3.4Q306.62-6.85 306.62-12.7L306.62-12.7Q306.62-19.5 310.17-23.15L310.17-23.15Q313.22-26.25 318.37-26.25ZM318.37-22.5L318.37-22.5Q314.87-22.5 312.87-19.88 310.87-17.25 310.87-12.7L310.87-12.7Q310.87-7.95 313.12-5.45L313.12-5.45Q315.07-3.25 318.32-3.25L318.32-3.25Q321.77-3.25 323.69-5.75 325.62-8.25 325.62-12.7L325.62-12.7Q325.62-17.6 323.42-20.2L323.42-20.2Q321.52-22.5 318.37-22.5ZM352.36-21.85L352.36-25.7 356.16-25.7 356.16-4.2Q356.16 4.15 353.46 7.4L353.46 7.4Q350.76 10.7 344.61 10.7L344.61 10.7Q339.81 10.7 337.11 8.4L337.11 8.4Q334.71 6.35 334.41 2.95L334.41 2.95 338.61 2.95Q338.91 4.95 340.11 5.9L340.11 5.9Q341.86 7.25 344.81 7.25L344.81 7.25Q348.81 7.25 350.51 4.85L350.51 4.85Q351.96 2.8 351.96-2.15L351.96-2.15 351.96-3.8Q348.76 0.55 344.26 0.55L344.26 0.55Q339.86 0.55 336.81-2.75L336.81-2.75Q333.56-6.3 333.56-12.45L333.56-12.45Q333.56-19.05 336.96-22.95L336.96-22.95Q339.96-26.25 344.51-26.25L344.51-26.25Q349.41-26.25 352.36-21.85L352.36-21.85ZM344.96-22.5L344.96-22.5Q341.66-22.5 339.74-19.88 337.81-17.25 337.81-12.7L337.81-12.7Q337.81-7.95 340.01-5.45L340.01-5.45Q341.86-3.25 345.01-3.25L345.01-3.25Q348.31-3.25 350.14-5.75 351.96-8.25 351.96-12.7L351.96-12.7Q351.96-17.6 349.86-20.2L349.86-20.2Q348.01-22.5 344.96-22.5ZM372.11 0L372.11-25.7 375.91-25.7 375.91-21.35Q379.01-26.25 384.41-26.25L384.41-26.25Q388.16-26.25 390.36-24.38 392.56-22.5 392.56-19.35L392.56-19.35 392.56 0 388.51 0 388.51-17.7Q388.51-20 387.08-21.35 385.66-22.7 383.21-22.7L383.21-22.7Q380.01-22.7 378.11-20.35 376.21-18 376.21-14.1L376.21-14.1 376.21 0 372.11 0ZM409.46-26.25L409.46-26.25Q415.26-26.25 418.31-22.2L418.31-22.2Q421.01-18.7 421.01-12.7L421.01-12.7Q421.01-6 417.51-2.5L417.51-2.5Q414.51 0.55 409.41 0.55L409.41 0.55Q403.51 0.55 400.41-3.4L400.41-3.4Q397.71-6.85 397.71-12.7L397.71-12.7Q397.71-19.5 401.26-23.15L401.26-23.15Q404.31-26.25 409.46-26.25ZM409.46-22.5L409.46-22.5Q405.96-22.5 403.96-19.88 401.96-17.25 401.96-12.7L401.96-12.7Q401.96-7.95 404.21-5.45L404.21-5.45Q406.16-3.25 409.41-3.25L409.41-3.25Q412.86-3.25 414.78-5.75 416.71-8.25 416.71-12.7L416.71-12.7Q416.71-17.6 414.51-20.2L414.51-20.2Q412.61-22.5 409.46-22.5ZM458-25.7L450.45 0 445.8 0 440.55-20.2 435.6 0 431 0 423.55-25.7 428.05-25.7 433.35-5.7 438.25-25.7 443.25-25.7 448.3-5.7 453.4-25.7 458-25.7Z" opacity="1" transform="matrix(1,0,0,1,0,0)" fill="#21272d" class="slogan-text-1" data-fill-palette-color="secondary" id="text-1"></path></svg></g></svg></g></svg></g></svg></g><g></g></svg></g></svg></g></svg></g><g><path d="M86.451 73.133A122.216 122.216 0 0 1 309.069 73.133L305.063 73.133A118.21 118.21 0 0 0 90.457 73.133L86.451 73.133M86.451 174.067A122.216 122.216 0 0 0 309.069 174.067L305.063 174.067A118.21 118.21 0 0 1 90.457 174.067L86.451 174.067" fill="#21272d" stroke="transparent" data-fill-palette-color="tertiary"></path></g></svg></g><defs></defs></svg><rect width="395.52" height="247.2" fill="none" stroke="none" visibility="hidden"></rect></g></svg></g></svg>